<mxfile host="app.diagrams.net" agent="Mozilla/5.0 (Windows NT 10.0; Win64; x64) AppleWebKit/537.36 (KHTML, like Gecko) Chrome/133.0.0.0 Safari/537.36" version="26.0.14">
  <diagram name="Page-1" id="ZLX0v0UZS0Uh1XJOQydC">
    <mxGraphModel dx="1195" dy="620" grid="1" gridSize="10" guides="1" tooltips="1" connect="1" arrows="1" fold="1" page="1" pageScale="1" pageWidth="413" pageHeight="583" background="#FFFFFF" math="0" shadow="0">
      <root>
        <mxCell id="0" />
        <mxCell id="1" parent="0" />
        <mxCell id="oeutDnv7Xu86Ao1kU50R-1" value="Course" style="swimlane;fontStyle=1;align=center;verticalAlign=top;childLayout=stackLayout;horizontal=1;startSize=26;horizontalStack=0;resizeParent=1;resizeParentMax=0;resizeLast=0;collapsible=1;marginBottom=0;whiteSpace=wrap;html=1;labelBackgroundColor=none;" vertex="1" parent="1">
          <mxGeometry x="384" y="50" width="186" height="180" as="geometry" />
        </mxCell>
        <mxCell id="oeutDnv7Xu86Ao1kU50R-2" value="&lt;div&gt;# name: String&lt;br&gt;# points: int&lt;/div&gt;" style="text;strokeColor=none;fillColor=none;align=left;verticalAlign=top;spacingLeft=4;spacingRight=4;overflow=hidden;rotatable=0;points=[[0,0.5],[1,0.5]];portConstraint=eastwest;whiteSpace=wrap;html=1;labelBackgroundColor=none;" vertex="1" parent="oeutDnv7Xu86Ao1kU50R-1">
          <mxGeometry y="26" width="186" height="34" as="geometry" />
        </mxCell>
        <mxCell id="oeutDnv7Xu86Ao1kU50R-3" value="" style="line;strokeWidth=1;fillColor=none;align=left;verticalAlign=middle;spacingTop=-1;spacingLeft=3;spacingRight=3;rotatable=0;labelPosition=right;points=[];portConstraint=eastwest;labelBackgroundColor=none;" vertex="1" parent="oeutDnv7Xu86Ao1kU50R-1">
          <mxGeometry y="60" width="186" height="8" as="geometry" />
        </mxCell>
        <mxCell id="oeutDnv7Xu86Ao1kU50R-4" value="&lt;div style=&quot;line-height: 170%;&quot;&gt;&lt;font&gt;+ Course(String, int)&lt;/font&gt;&lt;div&gt;&lt;font&gt;+ getName() : String&lt;/font&gt;&lt;/div&gt;&lt;div&gt;&lt;font&gt;+ getPoints() : int&lt;/font&gt;&lt;/div&gt;&lt;div&gt;&lt;font&gt;+ toString() : String&lt;/font&gt;&lt;/div&gt;&lt;div&gt;&lt;i&gt;&lt;font&gt;getGradeValue(): double&lt;/font&gt;&lt;/i&gt;&lt;/div&gt;&lt;/div&gt;" style="text;strokeColor=none;fillColor=none;align=left;verticalAlign=top;spacingLeft=4;spacingRight=4;overflow=hidden;rotatable=0;points=[[0,0.5],[1,0.5]];portConstraint=eastwest;whiteSpace=wrap;html=1;labelBackgroundColor=none;" vertex="1" parent="oeutDnv7Xu86Ao1kU50R-1">
          <mxGeometry y="68" width="186" height="112" as="geometry" />
        </mxCell>
        <mxCell id="oeutDnv7Xu86Ao1kU50R-6" value="StandardCourse" style="swimlane;fontStyle=1;align=center;verticalAlign=top;childLayout=stackLayout;horizontal=1;startSize=26;horizontalStack=0;resizeParent=1;resizeParentMax=0;resizeLast=0;collapsible=1;marginBottom=0;whiteSpace=wrap;html=1;labelBackgroundColor=none;" vertex="1" parent="1">
          <mxGeometry x="300" y="300" width="209" height="170" as="geometry" />
        </mxCell>
        <mxCell id="oeutDnv7Xu86Ao1kU50R-7" value="&lt;div&gt;- grade: Char&lt;/div&gt;" style="text;strokeColor=none;fillColor=none;align=left;verticalAlign=top;spacingLeft=4;spacingRight=4;overflow=hidden;rotatable=0;points=[[0,0.5],[1,0.5]];portConstraint=eastwest;whiteSpace=wrap;html=1;labelBackgroundColor=none;" vertex="1" parent="oeutDnv7Xu86Ao1kU50R-6">
          <mxGeometry y="26" width="209" height="24" as="geometry" />
        </mxCell>
        <mxCell id="oeutDnv7Xu86Ao1kU50R-8" value="" style="line;strokeWidth=1;fillColor=none;align=left;verticalAlign=middle;spacingTop=-1;spacingLeft=3;spacingRight=3;rotatable=0;labelPosition=right;points=[];portConstraint=eastwest;labelBackgroundColor=none;" vertex="1" parent="oeutDnv7Xu86Ao1kU50R-6">
          <mxGeometry y="50" width="209" height="8" as="geometry" />
        </mxCell>
        <mxCell id="oeutDnv7Xu86Ao1kU50R-9" value="&lt;div style=&quot;line-height: 170%;&quot;&gt;+ StandardCourse(String, int, char)&lt;/div&gt;&lt;div style=&quot;line-height: 170%;&quot;&gt;+ getGradeValue(): double&lt;/div&gt;&lt;div style=&quot;line-height: 170%;&quot;&gt;+ toString(): String&lt;/div&gt;" style="text;strokeColor=none;fillColor=none;align=left;verticalAlign=top;spacingLeft=4;spacingRight=4;overflow=hidden;rotatable=0;points=[[0,0.5],[1,0.5]];portConstraint=eastwest;whiteSpace=wrap;html=1;labelBackgroundColor=none;" vertex="1" parent="oeutDnv7Xu86Ao1kU50R-6">
          <mxGeometry y="58" width="209" height="112" as="geometry" />
        </mxCell>
        <mxCell id="oeutDnv7Xu86Ao1kU50R-19" value="&lt;b&gt;HighSchoolSystem&lt;/b&gt;" style="swimlane;fontStyle=0;childLayout=stackLayout;horizontal=1;startSize=26;fillColor=none;horizontalStack=0;resizeParent=1;resizeParentMax=0;resizeLast=0;collapsible=1;marginBottom=0;whiteSpace=wrap;html=1;labelBackgroundColor=none;" vertex="1" parent="1">
          <mxGeometry x="60" y="50" width="170" height="120" as="geometry" />
        </mxCell>
        <mxCell id="oeutDnv7Xu86Ao1kU50R-20" value="&lt;div style=&quot;line-height: 170%;&quot;&gt;- newProgram() : Program&lt;div&gt;- addCourse()&lt;/div&gt;&lt;div&gt;- removeCourse()&lt;/div&gt;&lt;div&gt;- displayMerit()&lt;/div&gt;&lt;/div&gt;" style="text;strokeColor=none;fillColor=none;align=left;verticalAlign=top;spacingLeft=4;spacingRight=4;overflow=hidden;rotatable=0;points=[[0,0.5],[1,0.5]];portConstraint=eastwest;whiteSpace=wrap;html=1;labelBackgroundColor=none;" vertex="1" parent="oeutDnv7Xu86Ao1kU50R-19">
          <mxGeometry y="26" width="170" height="94" as="geometry" />
        </mxCell>
        <mxCell id="oeutDnv7Xu86Ao1kU50R-23" value="Program" style="swimlane;fontStyle=1;align=center;verticalAlign=top;childLayout=stackLayout;horizontal=1;startSize=26;horizontalStack=0;resizeParent=1;resizeParentMax=0;resizeLast=0;collapsible=1;marginBottom=0;whiteSpace=wrap;html=1;labelBackgroundColor=none;" vertex="1" parent="1">
          <mxGeometry x="50" y="250" width="209" height="180" as="geometry" />
        </mxCell>
        <mxCell id="oeutDnv7Xu86Ao1kU50R-24" value="&lt;div&gt;- name: String&lt;div&gt;- courses: List&amp;lt;Course&amp;gt;&lt;/div&gt;&lt;/div&gt;" style="text;strokeColor=none;fillColor=none;align=left;verticalAlign=top;spacingLeft=4;spacingRight=4;overflow=hidden;rotatable=0;points=[[0,0.5],[1,0.5]];portConstraint=eastwest;whiteSpace=wrap;html=1;labelBackgroundColor=none;" vertex="1" parent="oeutDnv7Xu86Ao1kU50R-23">
          <mxGeometry y="26" width="209" height="34" as="geometry" />
        </mxCell>
        <mxCell id="oeutDnv7Xu86Ao1kU50R-25" value="" style="line;strokeWidth=1;fillColor=none;align=left;verticalAlign=middle;spacingTop=-1;spacingLeft=3;spacingRight=3;rotatable=0;labelPosition=right;points=[];portConstraint=eastwest;labelBackgroundColor=none;" vertex="1" parent="oeutDnv7Xu86Ao1kU50R-23">
          <mxGeometry y="60" width="209" height="8" as="geometry" />
        </mxCell>
        <mxCell id="oeutDnv7Xu86Ao1kU50R-26" value="&lt;div style=&quot;line-height: 170%;&quot;&gt;+ Program(String)&lt;/div&gt;&lt;div style=&quot;line-height: 170%;&quot;&gt;- setupCoreCourses(): void&lt;/div&gt;&lt;div style=&quot;line-height: 170%;&quot;&gt;+ addCourse(Course course): void&lt;/div&gt;&lt;div style=&quot;line-height: 170%;&quot;&gt;+ getTotalPoints(): int&lt;/div&gt;&lt;div style=&quot;line-height: 170%;&quot;&gt;+ displayCourses(): void&lt;/div&gt;" style="text;strokeColor=none;fillColor=none;align=left;verticalAlign=top;spacingLeft=4;spacingRight=4;overflow=hidden;rotatable=0;points=[[0,0.5],[1,0.5]];portConstraint=eastwest;whiteSpace=wrap;html=1;labelBackgroundColor=none;" vertex="1" parent="oeutDnv7Xu86Ao1kU50R-23">
          <mxGeometry y="68" width="209" height="112" as="geometry" />
        </mxCell>
        <mxCell id="oeutDnv7Xu86Ao1kU50R-27" value="ProgramSpecificCourse" style="swimlane;fontStyle=1;align=center;verticalAlign=top;childLayout=stackLayout;horizontal=1;startSize=26;horizontalStack=0;resizeParent=1;resizeParentMax=0;resizeLast=0;collapsible=1;marginBottom=0;whiteSpace=wrap;html=1;labelBackgroundColor=none;" vertex="1" parent="1">
          <mxGeometry x="540" y="330" width="240" height="90" as="geometry" />
        </mxCell>
        <mxCell id="oeutDnv7Xu86Ao1kU50R-30" value="&lt;div style=&quot;line-height: 170%;&quot;&gt;+ ProgramSpecificCourse(String, int, char)&lt;/div&gt;&lt;div style=&quot;line-height: 170%;&quot;&gt;+ getGradeValue(): double&lt;/div&gt;" style="text;strokeColor=none;fillColor=none;align=left;verticalAlign=top;spacingLeft=4;spacingRight=4;overflow=hidden;rotatable=0;points=[[0,0.5],[1,0.5]];portConstraint=eastwest;whiteSpace=wrap;html=1;labelBackgroundColor=none;" vertex="1" parent="oeutDnv7Xu86Ao1kU50R-27">
          <mxGeometry y="26" width="240" height="64" as="geometry" />
        </mxCell>
        <mxCell id="oeutDnv7Xu86Ao1kU50R-38" style="edgeStyle=orthogonalEdgeStyle;rounded=0;orthogonalLoop=1;jettySize=auto;html=1;exitX=0.5;exitY=0;exitDx=0;exitDy=0;entryX=0.462;entryY=1;entryDx=0;entryDy=0;entryPerimeter=0;endArrow=none;startFill=0;labelBackgroundColor=none;fontColor=default;" edge="1" parent="1" source="oeutDnv7Xu86Ao1kU50R-27" target="oeutDnv7Xu86Ao1kU50R-4">
          <mxGeometry relative="1" as="geometry">
            <Array as="points">
              <mxPoint x="645" y="265" />
              <mxPoint x="470" y="265" />
            </Array>
          </mxGeometry>
        </mxCell>
        <mxCell id="oeutDnv7Xu86Ao1kU50R-40" style="edgeStyle=orthogonalEdgeStyle;rounded=0;orthogonalLoop=1;jettySize=auto;html=1;exitX=0.5;exitY=0;exitDx=0;exitDy=0;entryX=0.462;entryY=0.995;entryDx=0;entryDy=0;entryPerimeter=0;labelBackgroundColor=none;fontColor=default;" edge="1" parent="1" source="oeutDnv7Xu86Ao1kU50R-6" target="oeutDnv7Xu86Ao1kU50R-4">
          <mxGeometry relative="1" as="geometry" />
        </mxCell>
        <mxCell id="oeutDnv7Xu86Ao1kU50R-55" style="edgeStyle=orthogonalEdgeStyle;rounded=0;orthogonalLoop=1;jettySize=auto;html=1;entryX=0.5;entryY=0;entryDx=0;entryDy=0;labelBackgroundColor=none;fontColor=default;" edge="1" parent="1" source="oeutDnv7Xu86Ao1kU50R-20" target="oeutDnv7Xu86Ao1kU50R-23">
          <mxGeometry relative="1" as="geometry" />
        </mxCell>
        <mxCell id="oeutDnv7Xu86Ao1kU50R-56" value="uses" style="edgeLabel;html=1;align=center;verticalAlign=middle;resizable=0;points=[];labelBackgroundColor=none;" vertex="1" connectable="0" parent="oeutDnv7Xu86Ao1kU50R-55">
          <mxGeometry x="0.2485" y="1" relative="1" as="geometry">
            <mxPoint as="offset" />
          </mxGeometry>
        </mxCell>
      </root>
    </mxGraphModel>
  </diagram>
</mxfile>
